<!--?xml version="1.0" standalone="no"?-->
              <svg id="sw-js-blob-svg" viewBox="0 0 100 100" xmlns="http://www.w3.org/2000/svg" version="1.1">
                    <defs> 
                        <linearGradient id="sw-gradient" x1="0" x2="1" y1="1" y2="0">
                            <stop id="stop1" stop-color="rgba(249, 148, 23, 1)" offset="0%"></stop>
                            <stop id="stop2" stop-color="rgba(255, 184, 0, 1)" offset="100%"></stop>
                        </linearGradient>
                    </defs>
                <path fill="url(#sw-gradient)" d="M17.6,-28.4C24.2,-23.2,31.8,-20.6,34.8,-15.4C37.9,-10.3,36.5,-2.6,35.7,5.4C34.9,13.4,34.8,21.7,30.5,26.1C26.2,30.5,17.7,30.9,10,32.3C2.4,33.7,-4.4,36,-11.3,35.4C-18.2,34.8,-25.2,31.3,-30.2,26C-35.2,20.6,-38.3,13.3,-38.4,6.1C-38.5,-1,-35.6,-8,-32.1,-14.2C-28.6,-20.4,-24.4,-25.9,-18.9,-31.6C-13.5,-37.3,-6.7,-43.2,-0.6,-42.3C5.5,-41.4,11.1,-33.6,17.6,-28.4Z" width="100%" height="100%" transform="translate(50 50)" stroke-width="0" style="transition: all 0.3s ease 0s;"></path>
              </svg>